<?xml version="1.0" encoding="UTF-8"?>
<svg xmlns="http://www.w3.org/2000/svg" xmlns:xlink="http://www.w3.org/1999/xlink" width="54.000mm" height="123.020mm" viewBox="19.000000 -162.020020 54.000000 123.020020">
    <path transform="matrix(1,0,0,-1,-18,-177.98999)" style="stroke:#ff0000;stroke-width:0.05mm;fill:none" d="M58,-33L58,-44.099998L55,-44.099998L55,-51.900002L58,-51.900002L58,-59.700001L58,-63L59.099998,-63L59.099998,-60L66.900002,-60L66.900002,-63L68,-63L68,-51.900002L71,-51.900002L71,-44.099998L68,-44.099998L68,-36.299999L68,-33L58,-33z"/>
    <path transform="matrix(1,0,0,-1,-36,-144.98999)" style="stroke:#ff0000;stroke-width:0.05mm;fill:none" d="M58,0L58,-11.1L55,-11.1L55,-18.9L58,-18.9L58,-26.700001L58,-30L59.099998,-30L59.099998,-27L66.900002,-27L66.900002,-30L68,-30L68,-18.9L71,-18.9L71,-11.1L68,-11.1L68,-3.3L68,0L58,0z"/>
    <path transform="matrix(-0.005223,-0.999986,-0.999986,0.005223,9.523087,-35.714081)" style="stroke:#ff0000;stroke-width:0.05mm;fill:none" d="M77,-50L77,-51.099998L74,-51.099998L74,-58.900002L77,-58.900002L77,-60L80.5,-60L80.5,-63L88.300003,-63L88.300003,-60L96.099998,-60L96.099998,-63L103.900002,-63L103.900002,-60L111.699997,-60L111.699997,-63L119.5,-63L119.5,-60L123,-60L123,-58.900002L126,-58.900002L126,-51.099998L123,-51.099998L123,-50L119.5,-50L119.5,-47L111.699997,-47L111.699997,-50L103.900002,-50L103.900002,-47L96.099998,-47L96.099998,-50L88.300003,-50L88.300003,-47L80.5,-47L80.5,-50L77,-50z"/>
    <circle transform="matrix(-0.005223,-0.999986,-0.999986,0.005223,64.000015,-136)" style="stroke:#ff0000;stroke-width:0.05mm;fill:none" r="1.5" cx="0" cy="0"/>
    <path transform="matrix(1,0,0,-1,21,-102)" style="stroke:#ff0000;stroke-width:0.05mm;fill:none" d="M0,-33L0,-44.099998L3,-44.099998L3,-51.900002L0,-51.900002L0,-59.700001L0,-63L6.5,-63L6.5,-60L14.3,-60L14.3,-63L22.1,-63L22.1,-60L29.9,-60L29.9,-63L37.700001,-63L37.700001,-60L45.5,-60L45.5,-63L52,-63L52,-51.900002L49,-51.900002L49,-44.099998L52,-44.099998L52,-36.299999L52,-33L0,-33z"/>
    <circle transform="matrix(1,0,0,-1,47,-56.5)" style="stroke:#ff0000;stroke-width:0.05mm;fill:none" r="4" cx="0" cy="0"/>
    <circle transform="matrix(0.999973,-0.007355,-0.007355,-0.999973,32.504234,-91.032013)" style="stroke:#ff0000;stroke-width:0.05mm;fill:none" r="8" cx="0" cy="0"/>
    <circle transform="matrix(0.999973,-0.007355,-0.007355,-0.999973,59.283844,-91.095581)" style="stroke:#ff0000;stroke-width:0.05mm;fill:none" r="8" cx="0" cy="0"/>
    <path transform="matrix(0.999973,-0.007355,-0.007355,-0.999973,-60.013412,119.785217)" style="stroke:#ff0000;stroke-width:0.05mm;fill:none" d="M103.7854,204.089111C103.0951,204.018204,102.484383,203.610977,102.153557,203.000977C101.637787,202.050201,101.928787,200.863068,102.825928,200.258789C103.172577,200.024399,103.581543,199.899231,104,199.899902L111,199.899902C111.557037,199.899628,112.091316,200.12085,112.485184,200.514755C112.879044,200.908661,113.100189,201.442963,113.100098,202C113.100212,202.557037,112.879051,203.091339,112.485184,203.485245C112.091316,203.879166,111.557037,204.100372,111,204.100098L104,204.100098L103.7854,204.089111z"/>
    <path transform="matrix(1,0,0,-1,20,-137)" style="stroke:#ff0000;stroke-width:0.05mm;fill:none" d="M0,-33L0,-44.099998L3,-44.099998L3,-51.900002L0,-51.900002L0,-59.700001L0,-63L6.5,-63L6.5,-60L14.3,-60L14.3,-63L22.1,-63L22.1,-60L29.9,-60L29.9,-63L37.700001,-63L37.700001,-60L45.5,-60L45.5,-63L52,-63L52,-51.900002L49,-51.900002L49,-44.099998L52,-44.099998L52,-36.299999L52,-33L0,-33z"/>
</svg>
